<?xml version="1.0" encoding="UTF-8" standalone="no"?>
<!-- Created with Inkscape (http://www.inkscape.org/) -->

<svg
   xmlnsdc="http://purl.org/dc/elements/1.1/"
   xmlnscc="http://creativecommons.org/ns#"
   xmlnsrdf="http://www.w3.org/1999/02/22-rdf-syntax-ns#"
   xmlnssvg="http://www.w3.org/2000/svg"
   xmlns="http://www.w3.org/2000/svg"
   xmlnssodipodi="http://sodipodi.sourceforge.net/DTD/sodipodi-0.dtd"
   xmlnsinkscape="http://www.inkscape.org/namespaces/inkscape"
   width="102.3716mm"
   height="144.49777mm"
   viewBox="0 0 362.73401 511.99998"
   id="svg3476"
   version="1.1"
   inkscapeversion="0.91 r13725"
   sodipodidocname="CSS3.svg">
  <defs
     id="defs3478" />
  <sodipodinamedview
     id="base"
     pagecolor="#ffffff"
     bordercolor="#666666"
     borderopacity="1.0"
     inkscapepageopacity="0.0"
     inkscapepageshadow="2"
     inkscapezoom="0.35"
     inkscapecx="181.367"
     inkscapecy="256"
     inkscapedocument-units="px"
     inkscapecurrent-layer="layer1"
     showgrid="false"
     fit-margin-top="0"
     fit-margin-left="0"
     fit-margin-right="0"
     fit-margin-bottom="0"
     inkscapewindow-width="1366"
     inkscapewindow-height="704"
     inkscapewindow-x="0"
     inkscapewindow-y="27"
     inkscapewindow-maximized="1" />
  <metadata
     id="metadata3481">
    <rdfRDF>
      <ccWork
         rdfabout="">
        <dcFormat>image/svg+xml</dcFormat>
        <dcType
           rdfresource="http://purl.org/dc/dcmitype/StillImage" />
        <dcTitle></dcTitle>
      </ccWork>
    </rdfRDF>
  </metadata>
  <g
     inkscapelabel="Calque 1"
     inkscapegroupmode="layer"
     id="layer1"
     transform="translate(-193.633,-276.3622)">
    <g
       id="g3013"
       transform="translate(119,276.3622)">
      <polygon
         id="polygon2989"
         points="437.367,100.62 404.321,470.819 255.778,512 107.644,470.877 74.633,100.62 "
         style="fill:#264de4" />
      <polygon
         id="polygon2991"
         points="376.03,447.246 404.27,130.894 256,130.894 256,480.523 "
         style="fill:#2965f1" />
      <polygon
         id="polygon2993"
         points="150.31,268.217 154.38,313.627 256,313.627 256,268.217 "
         style="fill:#ebebeb" />
      <polygon
         id="polygon2995"
         points="256,176.305 255.843,176.305 142.132,176.305 146.26,221.716 256,221.716 "
         style="fill:#ebebeb" />
      <polygon
         id="polygon2997"
         points="256,433.399 256,386.153 255.801,386.206 205.227,372.55 201.994,336.333 177.419,336.333 156.409,336.333 162.771,407.634 255.791,433.457 "
         style="fill:#ebebeb" />
      <path
         id="path2999"
         d="m 160,0 55,0 0,23 -32,0 0,23 32,0 0,23 -55,0 z"
         inkscapeconnector-curvature="0" />
      <path
         id="path3001"
         d="m 226,0 55,0 0,20 -32,0 0,4 32,0 0,46 -55,0 0,-21 32,0 0,-4 -32,0 z"
         inkscapeconnector-curvature="0" />
      <path
         id="path3003"
         d="m 292,0 55,0 0,20 -32,0 0,4 32,0 0,46 -55,0 0,-21 32,0 0,-4 -32,0 z"
         inkscapeconnector-curvature="0" />
      <polygon
         id="polygon3005"
         points="311.761,313.627 306.49,372.521 255.843,386.191 255.843,433.435 348.937,407.634 349.62,399.962 360.291,280.411 361.399,268.217 369.597,176.305 255.843,176.305 255.843,221.716 319.831,221.716 315.699,268.217 255.843,268.217 255.843,313.627 "
         style="fill:#ffffff" />
    </g>
  </g>
</svg>
